<svg width="689" height="254" viewBox="0 0 689 254" fill="none" xmlns="http://www.w3.org/2000/svg">
<path fill-rule="evenodd" clip-rule="evenodd" d="M133.714 119.194C139.914 120.847 145.698 116.398 146.029 110.358C146.323 105 142.213 100.421 136.853 100.128C130.813 99.8 125.761 105.058 126.724 111.396C127.288 115.104 130.089 118.228 133.717 119.194H133.714Z" fill="white"/>
<path fill-rule="evenodd" clip-rule="evenodd" d="M148.493 4.30088C86.0438 -13.021 21.3709 23.5383 4.04031 85.9522C1.85391 93.8295 0.531829 101.741 0.00231155 109.591C-0.41447 160.764 55.629 181.344 87.2531 145.389C85.0291 140.403 84.7627 139.813 82.5353 134.828L57.2517 134.725C57.2517 134.725 69.8918 97.6435 105.79 103.947C110.152 98.3879 117.278 90.8111 127.92 84.641C148.605 72.6527 169.086 73.8068 177.066 74.6945C177.066 74.6945 173.704 121.699 138.661 139.604C138.661 139.604 144.472 178.858 105.79 186.042L107.552 163.103L96.7434 156.445C96.7434 156.445 74.3875 186.923 59.2263 219.357C59.3697 219.439 59.5098 219.521 59.6533 219.603L56.4113 225.606C52.3357 235.006 49.0185 244.416 47.1669 253.154C118.016 240.09 207.939 228.812 230.185 148.684C247.516 86.2663 210.942 21.6261 148.493 4.30429V4.30088Z" fill="white"/>
<path d="M331.239 92.7695V108.677H273.709V92.7695H331.239ZM289.483 194.575V80.9717C289.483 74.6089 290.875 69.3286 293.659 65.131C296.443 60.8891 300.132 57.7297 304.727 55.653C309.323 53.532 314.316 52.4716 319.707 52.4716C323.683 52.4716 327.086 52.803 329.914 53.4658C332.742 54.0844 334.84 54.6588 336.21 55.189L331.571 71.2287C330.643 70.9635 329.45 70.6542 327.992 70.3008C326.533 69.9031 324.766 69.7042 322.689 69.7042C317.873 69.7042 314.426 70.8973 312.35 73.2833C310.317 75.6694 309.301 79.1159 309.301 83.6229V194.575H289.483ZM370.746 232.752C367.785 232.752 365.09 232.509 362.66 232.023C360.229 231.581 358.418 231.095 357.225 230.564L361.997 214.326C365.62 215.298 368.846 215.718 371.674 215.585C374.502 215.453 376.998 214.392 379.163 212.404C381.373 210.415 383.317 207.168 384.996 202.661L387.448 195.9L350.199 92.7695H371.409L397.191 171.775H398.252L424.034 92.7695H445.31L403.355 208.162C401.411 213.464 398.937 217.949 395.932 221.617C392.927 225.328 389.348 228.112 385.195 229.968C381.041 231.824 376.225 232.752 370.746 232.752ZM490.285 134.128V194.575H470.467V92.7695H489.489V109.339H490.749C493.091 103.949 496.758 99.6184 501.751 96.3486C506.788 93.0788 513.129 91.4439 520.773 91.4439C527.711 91.4439 533.786 92.902 539 95.8183C544.214 98.6904 548.257 102.977 551.129 108.677C554.001 114.377 555.437 121.424 555.437 129.82V194.575H535.62V132.206C535.62 124.827 533.698 119.06 529.854 114.907C526.009 110.709 520.729 108.61 514.013 108.61C509.417 108.61 505.33 109.604 501.751 111.593C498.216 113.581 495.41 116.498 493.334 120.342C491.301 124.142 490.285 128.737 490.285 134.128ZM631.431 196.629C621.887 196.629 613.557 194.442 606.443 190.068C599.329 185.693 593.806 179.573 589.874 171.708C585.941 163.843 583.975 154.652 583.975 144.136C583.975 133.576 585.941 124.341 589.874 116.431C593.806 108.522 599.329 102.38 606.443 98.0056C613.557 93.6311 621.887 91.4439 631.431 91.4439C640.975 91.4439 649.304 93.6311 656.418 98.0056C663.532 102.38 669.055 108.522 672.988 116.431C676.921 124.341 678.887 133.576 678.887 144.136C678.887 154.652 676.921 163.843 672.988 171.708C669.055 179.573 663.532 185.693 656.418 190.068C649.304 194.442 640.975 196.629 631.431 196.629ZM631.497 179.993C637.683 179.993 642.809 178.358 646.874 175.089C650.939 171.819 653.944 167.466 655.888 162.031C657.876 156.597 658.87 150.609 658.87 144.07C658.87 137.574 657.876 131.609 655.888 126.174C653.944 120.695 650.939 116.299 646.874 112.985C642.809 109.671 637.683 108.014 631.497 108.014C625.267 108.014 620.097 109.671 615.988 112.985C611.923 116.299 608.896 120.695 606.907 126.174C604.963 131.609 603.991 137.574 603.991 144.07C603.991 150.609 604.963 156.597 606.907 162.031C608.896 167.466 611.923 171.819 615.988 175.089C620.097 178.358 625.267 179.993 631.497 179.993Z" fill="white"/>
</svg>
