<svg width="689" height="254" viewBox="0 0 689 254" fill="none" xmlns="http://www.w3.org/2000/svg">
<path fill-rule="evenodd" clip-rule="evenodd" d="M133.714 119.62C139.914 121.272 145.698 116.823 146.029 110.783C146.323 105.426 142.213 100.847 136.853 100.553C130.813 100.225 125.761 105.484 126.724 111.821C127.288 115.529 130.089 118.653 133.717 119.62H133.714Z" fill="#9155FD"/>
<path fill-rule="evenodd" clip-rule="evenodd" d="M148.493 4.72617C86.0438 -12.5957 21.3709 23.9635 4.04031 86.3775C1.85391 94.2548 0.531829 102.166 0.00231155 110.016C-0.41447 161.19 55.629 181.769 87.2531 145.814C85.0291 140.829 84.7627 140.238 82.5353 135.253L57.2517 135.15C57.2517 135.15 69.8918 98.0688 105.79 104.372C110.152 98.8132 117.278 91.2364 127.92 85.0663C148.605 73.078 169.086 74.2321 177.066 75.1198C177.066 75.1198 173.704 122.124 138.661 140.03C138.661 140.03 144.472 179.283 105.79 186.467L107.552 163.528L96.7434 156.87C96.7434 156.87 74.3875 187.348 59.2263 219.783C59.3697 219.865 59.5098 219.947 59.6533 220.028L56.4113 226.031C52.3357 235.431 49.0185 244.842 47.1669 253.58C118.016 240.516 207.939 229.237 230.185 149.109C247.516 86.6916 210.942 22.0514 148.493 4.72958V4.72617Z" fill="#9155FD"/>
<path d="M331.239 93.1948V109.102H273.709V93.1948H331.239ZM289.483 195V81.397C289.483 75.0342 290.875 69.7539 293.659 65.5562C296.443 61.3144 300.132 58.155 304.727 56.0783C309.323 53.9573 314.316 52.8969 319.707 52.8969C323.683 52.8969 327.086 53.2283 329.914 53.8911C332.742 54.5097 334.84 55.0841 336.21 55.6143L331.571 71.654C330.643 71.3888 329.45 71.0795 327.992 70.726C326.533 70.3284 324.766 70.1295 322.689 70.1295C317.873 70.1295 314.426 71.3226 312.35 73.7086C310.317 76.0947 309.301 79.5412 309.301 84.0482V195H289.483ZM370.746 233.177C367.785 233.177 365.09 232.934 362.66 232.448C360.229 232.006 358.418 231.52 357.225 230.99L361.997 214.751C365.62 215.723 368.846 216.143 371.674 216.011C374.502 215.878 376.998 214.818 379.163 212.829C381.373 210.841 383.317 207.593 384.996 203.086L387.448 196.326L350.199 93.1948H371.409L397.191 172.2H398.252L424.034 93.1948H445.31L403.355 208.587C401.411 213.89 398.937 218.375 395.932 222.042C392.927 225.754 389.348 228.537 385.195 230.393C381.041 232.249 376.225 233.177 370.746 233.177ZM490.285 134.553V195H470.467V93.1948H489.489V109.765H490.749C493.091 104.374 496.758 100.044 501.751 96.7739C506.788 93.5041 513.129 91.8692 520.773 91.8692C527.711 91.8692 533.786 93.3273 539 96.2436C544.214 99.1157 548.257 103.402 551.129 109.102C554.001 114.802 555.437 121.85 555.437 130.245V195H535.62V132.631C535.62 125.252 533.698 119.486 529.854 115.332C526.009 111.134 520.729 109.036 514.013 109.036C509.417 109.036 505.33 110.03 501.751 112.018C498.216 114.007 495.41 116.923 493.334 120.767C491.301 124.567 490.285 129.162 490.285 134.553ZM631.431 197.055C621.887 197.055 613.557 194.867 606.443 190.493C599.329 186.119 593.806 179.999 589.874 172.134C585.941 164.268 583.975 155.078 583.975 144.561C583.975 134.001 585.941 124.766 589.874 116.857C593.806 108.947 599.329 102.805 606.443 98.4309C613.557 94.0564 621.887 91.8692 631.431 91.8692C640.975 91.8692 649.304 94.0564 656.418 98.4309C663.532 102.805 669.055 108.947 672.988 116.857C676.921 124.766 678.887 134.001 678.887 144.561C678.887 155.078 676.921 164.268 672.988 172.134C669.055 179.999 663.532 186.119 656.418 190.493C649.304 194.867 640.975 197.055 631.431 197.055ZM631.497 180.419C637.683 180.419 642.809 178.784 646.874 175.514C650.939 172.244 653.944 167.892 655.888 162.457C657.876 157.022 658.87 151.035 658.87 144.495C658.87 138 657.876 132.035 655.888 126.6C653.944 121.121 650.939 116.724 646.874 113.41C642.809 110.096 637.683 108.439 631.497 108.439C625.267 108.439 620.097 110.096 615.988 113.41C611.923 116.724 608.896 121.121 606.907 126.6C604.963 132.035 603.991 138 603.991 144.495C603.991 151.035 604.963 157.022 606.907 162.457C608.896 167.892 611.923 172.244 615.988 175.514C620.097 178.784 625.267 180.419 631.497 180.419Z" fill="#9155FD"/>
</svg>
