<svg width="792" height="320" viewBox="0 0 792 320" fill="none" xmlns="http://www.w3.org/2000/svg">
<path d="M125.132 115.542L114.884 68.0445H260.871C268.648 68.0445 275.923 64.201 280.307 57.7755L320.046 0H0L79.3129 115.542H125.132Z" fill="#008080"/>
<path d="M319.739 132.564V102.416H404.217V132.564H319.739ZM341.378 223.505V93.6736C341.378 80.7779 344.948 70.2864 352.088 62.1993C359.228 54.0393 370.484 49.9593 385.857 49.9593C390.374 49.9593 394.891 50.3235 399.409 51.0521C403.926 51.7078 407.386 52.6185 409.791 53.7843L398.425 81.8707C396.895 81.3607 395.365 80.9964 393.835 80.7779C392.305 80.4864 390.775 80.3407 389.245 80.3407C385.311 80.3407 382.105 81.5064 379.628 83.8379C377.151 86.1693 375.912 89.8122 375.912 94.7665V223.505H341.378Z" fill="white"/>
<path d="M440.828 269.405C436.384 269.405 431.903 268.968 427.386 268.094C422.869 267.292 419.08 266.382 416.02 265.362L427.932 237.712C429.608 238.514 431.466 239.17 433.506 239.68C435.546 240.19 437.477 240.445 439.298 240.445C442.941 240.445 445.855 239.68 448.041 238.15C450.227 236.692 451.866 234.907 452.959 232.794C454.052 230.682 454.853 228.751 455.363 227.002L460.609 209.189L458.095 227.221L408.823 102.416H445.106L466.401 169.518L471.865 186.676H472.739L477.657 169.518L499.093 102.416H535.157L484.652 234.871C483.34 238.222 481.774 241.902 479.952 245.909C478.131 249.916 475.654 253.668 472.521 257.165C469.388 260.735 465.272 263.65 460.172 265.908C455.144 268.24 448.697 269.405 440.828 269.405Z" fill="white"/>
<path d="M546.398 223.505V102.416H579.84V119.574H585.085L575.25 131.814C576.707 125.403 579.439 120.011 583.446 115.64C587.526 111.269 592.407 107.99 598.09 105.804C603.773 103.546 609.857 102.416 616.341 102.416C624.21 102.416 630.985 104.238 636.668 107.881C642.351 111.524 646.723 116.514 649.783 122.853C652.843 129.192 654.372 136.514 654.372 144.819V223.505H619.838V152.36C619.838 145.293 618.162 140.011 614.811 136.514C611.46 132.944 606.906 131.159 601.15 131.159C597.362 131.159 593.937 131.997 590.877 133.672C587.817 135.275 585.377 137.679 583.555 140.885C581.807 144.018 580.932 147.952 580.932 152.688V223.505H546.398Z" fill="white"/>
<path d="M730.326 223.505C719.033 223.505 708.724 220.919 699.398 215.746C690.145 210.573 682.75 203.433 677.213 194.326C671.749 185.219 669.017 174.727 669.017 162.852C669.017 150.976 671.749 140.484 677.213 131.377C682.75 122.27 690.145 115.166 699.398 110.066C708.724 104.966 719.033 102.416 730.326 102.416C741.838 102.416 752.22 104.966 761.473 110.066C770.726 115.166 778.048 122.27 783.439 131.377C788.903 140.484 791.636 150.976 791.636 162.852C791.636 174.727 788.903 185.219 783.439 194.326C778.048 203.433 770.689 210.573 761.363 215.746C752.111 220.919 741.765 223.505 730.326 223.505ZM730.326 193.998C735.718 193.998 740.563 192.687 744.861 190.064C749.16 187.441 752.548 183.798 755.025 179.135C757.502 174.472 758.741 169.044 758.741 162.852C758.741 156.877 757.538 151.559 755.134 146.896C752.73 142.233 749.415 138.59 745.189 135.967C740.963 133.272 736.082 131.924 730.545 131.924C725.08 131.924 720.163 133.235 715.791 135.858C711.493 138.408 708.105 142.014 705.628 146.677C703.15 151.34 701.912 156.732 701.912 162.852C701.912 169.044 703.15 174.472 705.628 179.135C708.178 183.798 711.602 187.441 715.9 190.064C720.199 192.687 725.008 193.998 730.326 193.998Z" fill="white"/>
<path d="M0.0456238 122.448L134.402 318.206C136.942 321.904 142.724 319.411 141.776 315.026L114.914 190.492H216.659C224.436 190.492 231.71 186.648 236.093 180.224L275.825 122.448H0.0456238Z" fill="#008080"/>
</svg>
